<?xml version="1.0" encoding="UTF-8" standalone="no"?>
<!-- Created with Inkscape (http://www.inkscape.org/) -->

<svg
   version="1.1"
   id="svg1"
   width="426.60931"
   height="77.094666"
   viewBox="0 0 426.60931 77.094666"
   sodipodi:docname="a-ponte_wite_h.svg"
   inkscape:version="1.4.2 (2aeb623e1d, 2025-05-12)"
   xmlns:inkscape="http://www.inkscape.org/namespaces/inkscape"
   xmlns:sodipodi="http://sodipodi.sourceforge.net/DTD/sodipodi-0.dtd"
   xmlns="http://www.w3.org/2000/svg"
   xmlns:svg="http://www.w3.org/2000/svg">
  <sodipodi:namedview
     id="namedview1"
     pagecolor="#505050"
     bordercolor="#eeeeee"
     borderopacity="1"
     inkscape:showpageshadow="0"
     inkscape:pageopacity="0"
     inkscape:pagecheckerboard="0"
     inkscape:deskcolor="#505050"
     inkscape:zoom="0.33725909"
     inkscape:cx="200.14286"
     inkscape:cy="464.03494"
     inkscape:window-width="1920"
     inkscape:window-height="1011"
     inkscape:window-x="0"
     inkscape:window-y="32"
     inkscape:window-maximized="1"
     inkscape:current-layer="g320" />
  <defs
     id="defs1">
    <clipPath
       clipPathUnits="userSpaceOnUse"
       id="clipPath2">
      <path
         d="M 0,0 H 1920 V 1079 H 0 Z"
         id="path2" />
    </clipPath>
    <clipPath
       clipPathUnits="userSpaceOnUse"
       id="clipPath229">
      <path
         d="M 0,0 H 1921 V 1080 H 0 Z"
         id="path229" />
    </clipPath>
    <clipPath
       clipPathUnits="userSpaceOnUse"
       id="clipPath230">
      <path
         d="M 0,0 H 1921 V 1080 H 0 Z"
         id="path230" />
    </clipPath>
    <clipPath
       clipPathUnits="userSpaceOnUse"
       id="clipPath231">
      <path
         d="M 0,0 H 1921 V 1080 H 0 Z"
         id="path231" />
    </clipPath>
    <clipPath
       clipPathUnits="userSpaceOnUse"
       id="clipPath232">
      <path
         d="M 0,0 H 1921 V 1080 H 0 Z"
         id="path232" />
    </clipPath>
    <clipPath
       clipPathUnits="userSpaceOnUse"
       id="clipPath233">
      <path
         d="M 0,0 H 1921 V 1080 H 0 Z"
         id="path233" />
    </clipPath>
    <clipPath
       clipPathUnits="userSpaceOnUse"
       id="clipPath234">
      <path
         d="M 0,0 H 1921 V 1080 H 0 Z"
         id="path234" />
    </clipPath>
    <clipPath
       clipPathUnits="userSpaceOnUse"
       id="clipPath235">
      <path
         d="M 0,0 H 1921 V 1080 H 0 Z"
         id="path235" />
    </clipPath>
    <clipPath
       clipPathUnits="userSpaceOnUse"
       id="clipPath236">
      <path
         d="M 0,0 H 1921 V 1080 H 0 Z"
         id="path236" />
    </clipPath>
    <clipPath
       clipPathUnits="userSpaceOnUse"
       id="clipPath237">
      <path
         d="M 0,0 H 1921 V 1080 H 0 Z"
         id="path237" />
    </clipPath>
    <clipPath
       clipPathUnits="userSpaceOnUse"
       id="clipPath238">
      <path
         d="M 0,0 H 1921 V 1080 H 0 Z"
         id="path238" />
    </clipPath>
    <clipPath
       clipPathUnits="userSpaceOnUse"
       id="clipPath239">
      <path
         d="M 0,0 H 1921 V 1080 H 0 Z"
         id="path239" />
    </clipPath>
    <clipPath
       clipPathUnits="userSpaceOnUse"
       id="clipPath240">
      <path
         d="M 0,0 H 1921 V 1080 H 0 Z"
         id="path240" />
    </clipPath>
    <clipPath
       clipPathUnits="userSpaceOnUse"
       id="clipPath241">
      <path
         d="M 0,0 H 1921 V 1080 H 0 Z"
         id="path241" />
    </clipPath>
    <clipPath
       clipPathUnits="userSpaceOnUse"
       id="clipPath242">
      <path
         d="M 0,0 H 1921 V 1080 H 0 Z"
         id="path242" />
    </clipPath>
    <clipPath
       clipPathUnits="userSpaceOnUse"
       id="clipPath243">
      <path
         d="M 0,0 H 1921 V 1080 H 0 Z"
         id="path243" />
    </clipPath>
    <clipPath
       clipPathUnits="userSpaceOnUse"
       id="clipPath244">
      <path
         d="M 0,0 H 1921 V 1080 H 0 Z"
         id="path244" />
    </clipPath>
    <clipPath
       clipPathUnits="userSpaceOnUse"
       id="clipPath245">
      <path
         d="M 0,0 H 1921 V 1080 H 0 Z"
         id="path245" />
    </clipPath>
    <clipPath
       clipPathUnits="userSpaceOnUse"
       id="clipPath246">
      <path
         d="M 0,0 H 1921 V 1080 H 0 Z"
         id="path246" />
    </clipPath>
    <clipPath
       clipPathUnits="userSpaceOnUse"
       id="clipPath247">
      <path
         d="M 0,0 H 1921 V 1080 H 0 Z"
         id="path247" />
    </clipPath>
    <clipPath
       clipPathUnits="userSpaceOnUse"
       id="clipPath248">
      <path
         d="M 0,0 H 1921 V 1080 H 0 Z"
         id="path248" />
    </clipPath>
    <clipPath
       clipPathUnits="userSpaceOnUse"
       id="clipPath249">
      <path
         d="M 0,0 H 1921 V 1080 H 0 Z"
         id="path249" />
    </clipPath>
    <clipPath
       clipPathUnits="userSpaceOnUse"
       id="clipPath250">
      <path
         d="M 0,0 H 1921 V 1080 H 0 Z"
         id="path250" />
    </clipPath>
    <clipPath
       clipPathUnits="userSpaceOnUse"
       id="clipPath251">
      <path
         d="M 0,0 H 1921 V 1080 H 0 Z"
         id="path251" />
    </clipPath>
    <clipPath
       clipPathUnits="userSpaceOnUse"
       id="clipPath252">
      <path
         d="M 0,0 H 1921 V 1080 H 0 Z"
         id="path252" />
    </clipPath>
    <clipPath
       clipPathUnits="userSpaceOnUse"
       id="clipPath253">
      <path
         d="M 0,0 H 1921 V 1080 H 0 Z"
         id="path253" />
    </clipPath>
    <clipPath
       clipPathUnits="userSpaceOnUse"
       id="clipPath254">
      <path
         d="M 0,0 H 1921 V 1080 H 0 Z"
         id="path254" />
    </clipPath>
    <clipPath
       clipPathUnits="userSpaceOnUse"
       id="clipPath255">
      <path
         d="M 0,0 H 1921 V 1080 H 0 Z"
         id="path255" />
    </clipPath>
    <clipPath
       clipPathUnits="userSpaceOnUse"
       id="clipPath256">
      <path
         d="M 0,0 H 1921 V 1080 H 0 Z"
         id="path256" />
    </clipPath>
    <clipPath
       clipPathUnits="userSpaceOnUse"
       id="clipPath257">
      <path
         d="M 0,0 H 1921 V 1080 H 0 Z"
         id="path257" />
    </clipPath>
    <clipPath
       clipPathUnits="userSpaceOnUse"
       id="clipPath258">
      <path
         d="M 0,0 H 1921 V 1080 H 0 Z"
         id="path258" />
    </clipPath>
    <clipPath
       clipPathUnits="userSpaceOnUse"
       id="clipPath259">
      <path
         d="M 0,0 H 1921 V 1080 H 0 Z"
         id="path259" />
    </clipPath>
    <clipPath
       clipPathUnits="userSpaceOnUse"
       id="clipPath260">
      <path
         d="M 0,0 H 1921 V 1080 H 0 Z"
         id="path260" />
    </clipPath>
    <clipPath
       clipPathUnits="userSpaceOnUse"
       id="clipPath261">
      <path
         d="M 0,0 H 1921 V 1080 H 0 Z"
         id="path261" />
    </clipPath>
    <clipPath
       clipPathUnits="userSpaceOnUse"
       id="clipPath262">
      <path
         d="M 0,0 H 1921 V 1080 H 0 Z"
         id="path262" />
    </clipPath>
    <clipPath
       clipPathUnits="userSpaceOnUse"
       id="clipPath263">
      <path
         d="M 0,0 H 1921 V 1080 H 0 Z"
         id="path263" />
    </clipPath>
    <clipPath
       clipPathUnits="userSpaceOnUse"
       id="clipPath264">
      <path
         d="M 0,0 H 1921 V 1080 H 0 Z"
         id="path264" />
    </clipPath>
    <clipPath
       clipPathUnits="userSpaceOnUse"
       id="clipPath265">
      <path
         d="M 0,0 H 1921 V 1080 H 0 Z"
         id="path265" />
    </clipPath>
    <clipPath
       clipPathUnits="userSpaceOnUse"
       id="clipPath266">
      <path
         d="M 0,0 H 1921 V 1080 H 0 Z"
         id="path266" />
    </clipPath>
    <clipPath
       clipPathUnits="userSpaceOnUse"
       id="clipPath267">
      <path
         d="M 0,0 H 1921 V 1080 H 0 Z"
         id="path267" />
    </clipPath>
    <clipPath
       clipPathUnits="userSpaceOnUse"
       id="clipPath268">
      <path
         d="M 0,0 H 1921 V 1080 H 0 Z"
         id="path268" />
    </clipPath>
    <clipPath
       clipPathUnits="userSpaceOnUse"
       id="clipPath269">
      <path
         d="M 0,0 H 1921 V 1080 H 0 Z"
         id="path269" />
    </clipPath>
    <clipPath
       clipPathUnits="userSpaceOnUse"
       id="clipPath270">
      <path
         d="M 0,0 H 1921 V 1080 H 0 Z"
         id="path270" />
    </clipPath>
    <clipPath
       clipPathUnits="userSpaceOnUse"
       id="clipPath271">
      <path
         d="M 0,0 H 1921 V 1080 H 0 Z"
         id="path271" />
    </clipPath>
    <clipPath
       clipPathUnits="userSpaceOnUse"
       id="clipPath272">
      <path
         d="M 0,0 H 1921 V 1080 H 0 Z"
         id="path272" />
    </clipPath>
    <clipPath
       clipPathUnits="userSpaceOnUse"
       id="clipPath273">
      <path
         d="M 0,0 H 1921 V 1080 H 0 Z"
         id="path273" />
    </clipPath>
    <clipPath
       clipPathUnits="userSpaceOnUse"
       id="clipPath274">
      <path
         d="M 0,0 H 1921 V 1080 H 0 Z"
         transform="scale(1,-1)"
         id="path274" />
    </clipPath>
    <clipPath
       clipPathUnits="userSpaceOnUse"
       id="clipPath321">
      <path
         d="M 0,12.418 H 1916.895 V 1079 H 0 Z"
         transform="scale(1.3333333)"
         id="path321" />
    </clipPath>
  </defs>
  <g
     id="g1"
     transform="translate(-841.25068,-817.30663)">
    <g
       id="g320"
       clip-path="url(#clipPath321)">
      <path
         d="m 671.512,634.277 h 6.289 v -10.609 c 0,-2.324 1.945,-4.215 4.269,-4.215 2.325,0 4.243,1.945 4.243,4.266 0,2.324 -1.864,4.269 -4.184,4.269 h -1.973 v 6.289 h 1.973 c 5.883,0 10.672,-4.757 10.672,-10.644 0,-5.883 -4.758,-10.653 -10.645,-10.653 -5.883,0 -10.644,4.801 -10.644,10.688 z"
         style="fill:#34b0af;fill-opacity:1;fill-rule:nonzero;stroke:none"
         transform="scale(1.3333333)"
         clip-path="url(#clipPath248)"
         id="path294" />
      <path
         d="m 641.613,634.277 h 27.543 v -6.289 h -27.543 c -2.32,0 -4.211,-1.945 -4.211,-4.269 0,-2.321 1.965,-4.239 4.286,-4.239 2.324,0 4.289,1.864 4.289,4.188 v 1.965 h 6.285 v -1.965 c 0,-5.887 -4.774,-10.672 -10.66,-10.672 -5.883,0 -10.664,4.754 -10.664,10.637 0,5.887 4.792,10.644 10.675,10.644"
         style="fill:#34b0af;fill-opacity:1;fill-rule:nonzero;stroke:none"
         transform="scale(1.3333333)"
         clip-path="url(#clipPath249)"
         id="path295" />
      <path
         d="m 652.262,649.598 h -6.285 v 10.484 c 0,2.324 -1.965,4.211 -4.289,4.211 -2.321,0 -4.247,-1.883 -4.247,-4.203 0,-2.324 1.852,-4.207 4.172,-4.207 h 2.004 v -6.285 h -2.004 c -5.883,0 -10.672,4.691 -10.672,10.578 0,5.887 4.778,10.625 10.661,10.625 5.886,0 10.66,-4.832 10.66,-10.719 z"
         style="fill:#34b0af;fill-opacity:1;fill-rule:nonzero;stroke:none"
         transform="scale(1.3333333)"
         clip-path="url(#clipPath250)"
         id="path296" />
      <path
         d="m 682.129,649.598 h -27.508 v 6.285 h 27.508 c 2.32,0 4.211,1.883 4.211,4.207 0,2.32 -1.949,4.211 -4.27,4.211 -2.324,0 -4.269,-1.895 -4.269,-4.219 v -2.234 h -6.289 v 2.234 c 0,5.887 4.761,10.672 10.644,10.672 5.883,0 10.657,-4.691 10.657,-10.578 0,-5.887 -4.801,-10.578 -10.684,-10.578"
         style="fill:#34b0af;fill-opacity:1;fill-rule:nonzero;stroke:none"
         transform="scale(1.3333333)"
         clip-path="url(#clipPath251)"
         id="path297" />
      <path
         d="m 811.434,625.691 c -1.129,-1.125 -2.469,-1.98 -3.981,-2.64 -1.531,-0.672 -3.191,-0.957 -4.933,-0.957 h -11.864 c -0.906,0 -1.699,0.289 -2.324,0.937 -0.613,0.637 -0.918,1.375 -0.918,2.235 v 30.211 c 0,0.902 0.305,1.703 0.922,2.324 0.617,0.629 1.41,0.961 2.309,0.961 0.894,0 1.597,-0.332 2.214,-0.961 0.618,-0.621 0.84,-1.426 0.84,-2.324 v -26.704 h 8.801 c 0.832,0 1.621,0.067 2.344,0.379 0.73,0.309 1.379,0.7 1.922,1.246 0.547,0.54 0.98,1.168 1.293,1.911 0.312,0.738 0.468,1.523 0.468,2.355 0,0.828 -0.156,1.609 -0.464,2.328 -0.313,0.731 -0.747,1.371 -1.29,1.918 -0.55,0.547 -1.199,0.918 -1.937,1.246 -0.715,0.321 -1.465,0.407 -2.293,0.407 h -6.879 v 6.679 h 6.727 c 0.043,0 0.082,0.016 0.129,0.016 1.742,0 3.402,-0.332 4.933,-1 1.512,-0.664 2.852,-1.57 3.981,-2.695 1.125,-1.129 2.035,-2.465 2.695,-3.977 0.672,-1.531 1.012,-3.191 1.012,-4.934 0,-1.746 -0.34,-3.41 -1.008,-4.953 -0.664,-1.531 -1.574,-2.879 -2.699,-4.008"
         style="fill:#ffffff;fill-opacity:1;fill-rule:nonzero;stroke:none"
         transform="scale(1.3333333)"
         clip-path="url(#clipPath252)"
         id="path298" />
      <path
         d="m 847.836,644.879 c -0.625,1.441 -1.488,2.726 -2.574,3.812 -1.082,1.086 -2.364,1.954 -3.805,2.575 -1.426,0.617 -2.977,0.929 -4.609,0.929 -1.633,0 -3.184,-0.312 -4.614,-0.929 -1.437,-0.621 -2.718,-1.489 -3.804,-2.578 -1.082,-1.083 -1.95,-2.368 -2.571,-3.809 -0.617,-1.434 -0.929,-2.988 -0.929,-4.625 0,-1.637 0.312,-3.188 0.929,-4.621 0.621,-1.442 1.485,-2.727 2.571,-3.813 1.086,-1.086 2.367,-1.953 3.804,-2.574 1.43,-0.617 2.981,-0.93 4.614,-0.93 1.629,0 3.183,0.313 4.609,0.93 1.441,0.621 2.723,1.488 3.805,2.574 1.086,1.086 1.953,2.371 2.574,3.813 0.617,1.433 0.926,2.988 0.926,4.621 0,1.637 -0.309,3.191 -0.926,4.625 m 2.031,-17.652 c -1.672,-1.653 -3.648,-2.977 -5.875,-3.934 -2.242,-0.961 -4.652,-1.449 -7.168,-1.449 -2.519,0 -4.922,0.488 -7.148,1.449 -2.211,0.961 -4.18,2.281 -5.848,3.934 -1.672,1.66 -3.008,3.628 -3.965,5.863 -0.965,2.234 -1.453,4.648 -1.453,7.164 0,2.551 0.488,4.973 1.453,7.195 0.961,2.215 2.293,4.176 3.965,5.832 1.668,1.653 3.637,2.977 5.848,3.934 2.226,0.965 4.629,1.453 7.148,1.453 2.516,0 4.93,-0.488 7.168,-1.449 2.227,-0.957 4.203,-2.281 5.875,-3.938 1.672,-1.656 3.004,-3.617 3.965,-5.832 0.961,-2.226 1.449,-4.644 1.449,-7.195 0,-2.516 -0.488,-4.926 -1.449,-7.164 -0.957,-2.235 -2.293,-4.203 -3.965,-5.863"
         style="fill:#ffffff;fill-opacity:1;fill-rule:nonzero;stroke:none"
         transform="scale(1.3333333)"
         clip-path="url(#clipPath253)"
         id="path299"
         sodipodi:nodetypes="cccscccscscscccscccscccscccscccscc" />
      <path
         d="m 885.5,621.984 c -0.875,0 -1.574,0.332 -2.184,0.969 -0.597,0.621 -0.824,1.387 -0.824,2.219 v 20.906 l -17.39,-22.832 -0.075,-0.035 c -0.429,-0.523 -0.988,-0.887 -1.617,-1.082 -0.637,-0.195 -1.312,-0.176 -1.945,0.055 -0.672,0.203 -1.184,0.578 -1.582,1.125 -0.399,0.546 -0.57,1.175 -0.57,1.863 v 30.305 c 0,0.882 0.3,1.668 0.933,2.277 0.621,0.598 1.371,0.914 2.203,0.914 0.871,0 1.633,-0.324 2.239,-0.93 0.609,-0.609 0.91,-1.39 0.91,-2.261 v -20.872 l 17.351,22.786 c 0.598,0.836 1.481,1.277 2.547,1.277 0.211,0 0.477,-0.035 0.887,-0.117 l 0.101,-0.02 0.094,-0.035 c 0.621,-0.238 1.172,-0.625 1.555,-1.156 0.398,-0.547 0.644,-1.172 0.644,-1.863 v -30.305 c 0,-0.828 -0.359,-1.598 -0.957,-2.219 -0.613,-0.637 -1.441,-0.969 -2.32,-0.969"
         style="fill:#ffffff;fill-opacity:1;fill-rule:nonzero;stroke:none"
         transform="scale(1.3333333)"
         clip-path="url(#clipPath254)"
         id="path300" />
      <path
         d="m 919.852,622.098 h -24.235 c -0.863,0 -1.644,0.257 -2.269,0.855 -0.633,0.61 -0.969,1.383 -0.969,2.293 0,0.871 0.328,1.613 0.953,2.234 0.621,0.625 1.414,0.903 2.285,0.903 h 8.875 v 26.906 c 0,0.914 0.328,1.719 0.973,2.328 0.625,0.594 1.406,0.91 2.273,0.91 0.907,0 1.793,-0.32 2.407,-0.925 0.613,-0.61 1.027,-1.407 1.027,-2.313 v -26.906 h 8.68 c 0.91,0 1.711,-0.301 2.32,-0.934 0.598,-0.621 0.914,-1.386 0.914,-2.25 0,-0.898 -0.32,-1.629 -0.93,-2.242 -0.609,-0.605 -1.406,-0.859 -2.304,-0.859"
         style="fill:#ffffff;fill-opacity:1;fill-rule:nonzero;stroke:none"
         transform="scale(1.3333333)"
         clip-path="url(#clipPath255)"
         id="path301" />
      <path
         d="m 947.66,651.957 h -14.488 v -8.644 h 5.055 c 0.871,0 1.66,-0.266 2.281,-0.887 0.625,-0.625 0.953,-1.379 0.953,-2.25 0,-0.871 -0.328,-1.617 -0.953,-2.242 -0.625,-0.621 -1.414,-0.911 -2.281,-0.911 h -5.055 v -8.64 h 14.488 c 0.86,0 1.645,-0.305 2.266,-0.903 0.633,-0.609 0.969,-1.406 0.969,-2.312 0,-0.871 -0.329,-1.578 -0.954,-2.203 -0.625,-0.621 -1.414,-0.867 -2.281,-0.867 h -17.629 c -0.875,0 -1.609,0.246 -2.238,0.867 -0.629,0.625 -0.906,1.336 -0.906,2.207 v 30.074 c 0,0.871 0.277,1.738 0.906,2.363 0.629,0.621 1.363,1.024 2.238,1.024 h 17.629 c 0.867,0 1.656,-0.406 2.281,-1.031 0.625,-0.622 0.954,-1.45 0.954,-2.321 0,-0.906 -0.332,-1.754 -0.969,-2.367 -0.621,-0.598 -1.406,-0.957 -2.266,-0.957"
         style="fill:#ffffff;fill-opacity:1;fill-rule:nonzero;stroke:none"
         transform="scale(1.3333333)"
         clip-path="url(#clipPath256)"
         id="path302"
         sodipodi:nodetypes="cccssscsccscscsscsscsscscc" />
      <path
         d="m 752.09,647.242 h 0.008 l -3.063,-6.679 h -0.012 l -7.863,-16.739 c -0.254,-0.601 -0.668,-1.035 -1.226,-1.363 -0.524,-0.313 -1.106,-0.449 -1.719,-0.449 -0.633,0 -1.223,0.179 -1.754,0.519 -0.547,0.348 -0.949,0.828 -1.199,1.422 l -13.391,30.098 c -0.379,0.816 -0.414,1.679 -0.101,2.5 0.312,0.812 0.898,1.441 1.699,1.816 l 0.062,0.031 0.067,0.02 c 0.402,0.137 0.808,0.203 1.215,0.203 0.617,0 1.199,-0.156 1.722,-0.469 0.551,-0.324 0.977,-0.808 1.266,-1.433 l 2.406,-5.446 1.785,-4.031 h 10.578 l -3.062,-6.679 h -4.61 l 0.832,-1.797 2.559,-5.735 2.145,4.539 1.429,2.993 h -0.011 l 3.062,6.679 h 0.027 l 1.055,2.356 h 0.012 l 3.371,7.218 c 0.383,0.813 1.019,1.372 1.844,1.664 0.351,0.125 0.715,0.176 1.074,0.176 0.476,0 0.949,-0.113 1.41,-0.328 0.809,-0.383 1.391,-1.008 1.68,-1.816 0.293,-0.801 0.246,-1.672 -0.133,-2.481 z"
         style="fill:#ffffff;fill-opacity:1;fill-rule:nonzero;stroke:none"
         transform="scale(1.3333333)"
         clip-path="url(#clipPath257)"
         id="path303" />
      <path
         d="m 754.441,647.242 h 30.618 v -6.679 h -33.68 z"
         style="fill:#ffffff;fill-opacity:1;fill-rule:nonzero;stroke:none"
         transform="scale(1.3333333)"
         clip-path="url(#clipPath258)"
         id="path304" />
    </g>
  </g>
</svg>
